<?xml version="1.0" encoding="UTF-8"?>
<svg xmlns="http://www.w3.org/2000/svg" xmlns:xlink="http://www.w3.org/1999/xlink" width="426.256012pt" height="582.927979pt" viewBox="0 0 426.256012 582.927979" version="1.1">
<g id="surface1">
<path style=" stroke:none;fill-rule:nonzero" d="M 103.902344 116.304688 C 109.078125 113.320312 124.992188 107.105469 124.992188 107.105469 C 125.671875 109.191406 132.917969 113.894531 137.328125 113.894531 C 134.871094 118.753906 129.976562 121.632812 125.542969 124.566406 C 121.070312 126.976562 115.703125 127.464844 111.335938 130.40625 C 112.71875 133.769531 116.636719 135.6875 120.085938 137.160156 C 124.519531 138.632812 129.4375 138.632812 134.359375 139.121094 C 130.527344 146.039062 123.816406 155.96875 133.511719 174.289062 C 137.992188 182.742188 124.519531 186.214844 117.175781 188.199219 C 112.71875 189.585938 108.335938 191.03125 105.351562 195.449219 C 104.925781 196.425781 103.902344 197.871094 103.390625 198.792969 C 100.46875 217.28125 109.144531 230.871094 121.582031 246.375 C 121.878906 246.734375 121.582031 247.847656 121.070312 247.847656 C 102.429688 236.679688 82.816406 225.03125 73.925781 204.648438 C 68.535156 191.527344 72.007812 170.863281 74.886719 162.910156 C 74.253906 152.238281 93.023438 120.121094 103.902344 116.304688 Z M 103.902344 116.304688 "/>
<path style=" stroke:none;fill-rule:nonzero" d="M 142.421875 118.265625 C 147.878906 111.984375 152.222656 104.65625 152.734375 96.40625 C 152.734375 93.046875 152.230469 90.144531 153.207031 86.71875 C 155.214844 80.414062 161.09375 75.535156 167.976562 75.535156 C 181.246094 76.535156 190.152344 88.679688 191.109375 101.3125 C 191.582031 117.785156 185.230469 133.351562 178.816406 148.855469 C 176.367188 155.183594 175.253906 161.207031 175.253906 168.015625 C 167.117188 156.71875 172.039062 143.40625 166.992188 135.246094 C 164.582031 141.574219 140.230469 156.359375 139.695312 174.105469 C 138.695312 170.160156 136.542969 165.855469 135.503906 161.960938 C 134.117188 152.246094 139.4375 144 142.421875 135.695312 C 142.933594 135.246094 143.871094 133.351562 142.421875 133.777344 C 135.503906 134.816406 129.152344 134.328125 122.757812 131.878906 C 125.742188 129.449219 129.640625 128.449219 133.132812 126.488281 C 136.542969 124.121094 139.4375 121.671875 142.421875 118.265625 Z M 142.421875 118.265625 "/>
<path style=" stroke:none;fill-rule:nonzero" d="M 160.382812 25.207031 C 164.382812 17.480469 174.398438 8.464844 177.320312 8 C 176.933594 11.894531 178.894531 15.777344 178.382812 19.65625 C 178.382812 20.128906 177.910156 20.128906 178.382812 19.65625 C 183.277344 14.351562 189.671875 11.902344 196.535156 10.945312 C 201.96875 17.734375 203.902344 26.488281 201.96875 35.207031 C 200.984375 40.0625 199.519531 44.40625 196.085938 47.816406 C 191.613281 51.160156 183.046875 53.871094 183.046875 53.871094 C 183.046875 53.871094 171.527344 50.375 164.855469 49.457031 C 154.679688 48.160156 146.101562 53.207031 138.773438 61.902344 C 137.621094 63.238281 138.773438 61.902344 138.773438 61.902344 C 135.855469 61.433594 132.175781 63.398438 129.230469 62.351562 C 127.230469 50.246094 131.191406 35.65625 141.992188 28.351562 C 143.460938 30.3125 144.4375 33.742188 146.460938 33.273438 C 148.398438 32.761719 148.398438 29.375 149.367188 26.945312 C 151.320312 22.574219 155.214844 19.214844 158.222656 15.785156 C 159.207031 18.65625 158.222656 22.574219 159.671875 25.519531 "/>
<path style=" stroke:none;fill-rule:nonzero" d="M 159.933594 61.472656 C 158.292969 57.617188 153.582031 55.65625 150.09375 58.039062 C 148.621094 59.488281 146.152344 62.921875 146.152344 62.921875 C 146.152344 62.921875 145.640625 61.9375 144.703125 61.9375 C 152.054688 50.28125 168.3125 52.222656 178.664062 59.488281 C 186.976562 65.367188 190.421875 74.566406 188.925781 83.792969 C 182.519531 74.566406 171.207031 65.832031 159.40625 70.710938 C 159.398438 67.777344 161.40625 64.855469 159.933594 61.472656 Z M 159.933594 61.472656 "/>
<path style=" stroke:none;fill-rule:nonzero" d="M 140.78125 91.015625 C 143.703125 90.105469 145.214844 87.695312 147.664062 85.734375 C 147.664062 92 149.109375 99.304688 144.191406 104.160156 C 140.320312 107.566406 134.878906 109.527344 129.984375 106.609375 C 128 105.632812 128.46875 101.710938 129.453125 99.304688 C 131.894531 94.960938 136.351562 93.039062 140.78125 91.015625 "/>
<path style=" stroke:none;fill-rule:nonzero" d="M 154.03125 70.183594 C 154.535156 70.71875 156.503906 72.617188 155.992188 73.105469 C 154.03125 75.0625 154.03125 77.023438 152.558594 78.9375 C 150.597656 76.527344 147.65625 75.0625 145.628906 72.609375 C 143.695312 70.175781 145.207031 68.710938 147.65625 67.238281 C 147.65625 66.792969 148.152344 65.832031 148.152344 65.367188 C 148.621094 63.855469 150.605469 62.921875 152.046875 62.449219 C 154.03125 62.449219 155.527344 64.382812 155.527344 66.320312 C 155.054688 67.777344 154.03125 68.710938 154.03125 70.183594 "/>
<path style=" stroke:none;fill-rule:nonzero" d="M 145.640625 79.40625 C 145.640625 79.855469 145.640625 80.855469 146.152344 81.351562 C 140.78125 82.328125 135.367188 84.753906 129.445312 82.800781 L 129.445312 81.351562 C 133.902344 78.480469 138.773438 77.023438 142.71875 74.089844 C 143.230469 76.015625 145.640625 77.023438 145.640625 79.40625 Z M 145.640625 79.40625 "/>
<path style=" stroke:none;fill-rule:nonzero" d="M 123.078125 83.800781 C 124.0625 80.855469 123.824219 77.214844 124.78125 74.574219 C 125.824219 71.808594 128 70.71875 129.976562 69.230469 C 131.894531 68.273438 133.429688 67.246094 135.367188 66.800781 C 136.789062 66.441406 137.816406 66.800781 139.285156 66.328125 C 139.285156 67.777344 139.78125 69.222656 140.3125 70.71875 C 140.3125 71.144531 141.910156 72.617188 141.527344 72.871094 C 140.054688 73.855469 138.054688 73.855469 135.09375 75.535156 C 130.894531 78 128.765625 78.894531 123.078125 83.800781 "/>
<path style=" stroke:none;fill-rule:nonzero" d="M 119.628906 91.015625 C 123.957031 88.441406 129.453125 86.246094 134.367188 87.695312 C 127.023438 89.167969 125 96.40625 122.605469 102.695312 C 121.589844 104.65625 119.621094 104.65625 117.664062 104.65625 C 116.636719 104.160156 115.238281 103.207031 115.238281 102.222656 C 113.277344 97.894531 115.710938 93.472656 119.628906 91.015625 Z M 119.628906 91.015625 "/>
<path style=" stroke:none;fill-rule:nonzero" d="M 253.792969 160.488281 C 243.007812 174.015625 238.0625 190.078125 234.625 206.121094 C 232.664062 201.710938 226.78125 199.808594 226.269531 194.976562 C 224.824219 183.792969 225.800781 173.121094 229.191406 162.375 C 230.742188 156.558594 232.664062 150.769531 235.136719 145.414062 C 240.976562 133.761719 248.382812 123.089844 258.671875 114.335938 C 261.167969 112.414062 263.128906 110.480469 266.136719 108.542969 C 274.933594 102.6875 283.816406 99.296875 293.101562 94.441406 C 296.558594 93.039062 300.496094 91.007812 303.902344 91.007812 C 304.933594 91.007812 305.902344 90.585938 306.886719 90.097656 C 323.589844 86.238281 340.3125 87.6875 356.480469 92.503906 C 381.078125 99.304688 402.679688 116.808594 408.59375 142.542969 C 412.527344 157.558594 409.078125 173.121094 399.769531 185.257812 C 403.238281 175.542969 403.703125 164.871094 400.742188 154.640625 C 396.847656 141.070312 386.023438 131.398438 373.222656 125.984375 C 347.191406 115.3125 317.6875 118.246094 293.101562 130.816406 C 278.351562 138.632812 264.617188 146.910156 253.792969 160.488281 Z M 253.792969 160.488281 "/>
<path style=" stroke:none;fill-rule:nonzero" d="M 248.375 167.726562 C 240.773438 180.046875 237.550781 192.976562 234.613281 206.121094 C 232.65625 201.710938 226.773438 199.808594 226.261719 194.976562 C 224.816406 183.792969 225.792969 173.121094 229.183594 162.375 C 230.734375 156.558594 232.65625 150.769531 235.128906 145.414062 C 240.96875 133.761719 248.375 123.089844 258.664062 114.335938 C 261.160156 112.414062 263.121094 110.480469 266.128906 108.542969 C 274.925781 102.6875 283.808594 99.296875 293.09375 94.441406 C 296.550781 93.039062 300.488281 91.007812 303.894531 91.007812 C 304.925781 91.007812 305.894531 90.585938 306.878906 90.097656 C 323.582031 86.238281 340.304688 87.6875 356.472656 92.503906 C 381.070312 99.304688 402.671875 116.808594 408.582031 142.542969 C 412.519531 157.558594 409.070312 173.121094 399.761719 185.257812 C 403.230469 175.542969 403.695312 164.871094 400.734375 154.640625 C 396.839844 141.070312 386.015625 131.398438 373.214844 125.984375 C 347.183594 115.3125 317.679688 118.246094 293.09375 130.816406 C 275.414062 139.632812 259.207031 150.304688 248.375 167.726562 Z M 248.375 167.726562 "/>
<path style=" stroke:none;fill-rule:nonzero" d="M 322.152344 73.59375 C 345.222656 59.089844 365.847656 40.59375 383.03125 19.710938 C 381.558594 27.976562 378.640625 35.777344 374.703125 42.976562 C 373.207031 44.9375 372.230469 46.960938 370.734375 48.816406 C 366.824219 55.183594 361.40625 60 356.046875 65.367188 C 355.535156 65.839844 356.046875 66.328125 356.472656 66.328125 C 362.878906 65.367188 369.253906 65.839844 375.703125 63.855469 C 382.046875 62.449219 387.488281 60 392.917969 57.105469 C 382.046875 69.734375 367.3125 79.40625 351.609375 84.753906 C 344.230469 83.792969 336.871094 82.328125 329.496094 82.328125 C 324.558594 82.328125 319.695312 83.800781 314.6875 84.753906 C 308.808594 85.265625 303.878906 88.183594 298.496094 88.632812 C 306.878906 84.289062 314.253906 78.472656 322.152344 73.59375 "/>
<path style=" stroke:none;fill-rule:nonzero" d="M 302.960938 158.03125 C 291.648438 162.902344 280.847656 168.703125 269.496094 173.121094 C 270.535156 161.953125 273.976562 151.257812 282.253906 143.542969 C 295.0625 131.871094 312.289062 126.976562 329.039062 125.527344 C 326.105469 130.832031 322.597656 135.6875 320.648438 141.078125 C 327.078125 144 334.40625 144.441406 340.800781 147.359375 C 348.632812 151.257812 358.96875 153.6875 362.449219 161.953125 C 362.449219 162.375 360.480469 161.464844 359.480469 160.96875 C 344.246094 153.679688 327.527344 150.296875 310.808594 151.742188 C 308.824219 151.742188 307.375 154.640625 305.414062 156.558594 "/>
<path style=" stroke:none;fill-rule:nonzero" d="M 338.304688 136.199219 C 337.320312 138.136719 336.878906 141.078125 334.910156 141.078125 C 332.421875 141.078125 328.480469 140.609375 327.992188 138.136719 C 327.992188 136.726562 330.496094 134.808594 331.449219 132.792969 C 332.917969 130.832031 333.40625 128.960938 333.40625 126.488281 C 333.40625 125.527344 334.910156 125.527344 335.382812 125.527344 C 337.320312 126.488281 340.304688 125.015625 340.800781 126.488281 C 341.769531 129.449219 339.832031 133.257812 338.304688 136.199219 Z M 338.304688 136.199219 "/>
<path style=" stroke:none;fill-rule:nonzero" d="M 339.289062 134.238281 C 338.777344 136.839844 337.320312 140.609375 334.910156 141.078125 C 332.421875 141.078125 328.480469 140.609375 327.992188 138.136719 C 327.992188 136.726562 330.496094 134.808594 331.449219 132.792969 C 332.917969 130.832031 333.40625 128.960938 333.40625 126.488281 C 333.40625 125.527344 334.910156 125.527344 335.382812 125.527344 C 337.320312 126.488281 340.304688 125.015625 340.800781 126.488281 C 341.769531 128.960938 339.832031 131.871094 339.289062 134.238281 Z M 339.289062 134.238281 "/>
<path style=" stroke:none;fill-rule:nonzero" d="M 317.191406 159.503906 C 315.230469 159.503906 313.273438 159.992188 311.320312 159.992188 C 311.808594 158.566406 312.792969 156.558594 313.765625 156.121094 C 316.726562 154.648438 320.136719 156.566406 323.09375 155.648438 C 323.589844 158.03125 321.160156 158.566406 319.710938 159.992188 C 319.191406 159.03125 318.128906 159.503906 317.191406 159.503906 Z M 317.191406 159.503906 "/>
<path style=" stroke:none;fill-rule:nonzero" d="M 317.191406 159.503906 C 315.230469 159.503906 313.273438 159.992188 311.320312 159.992188 C 311.808594 158.566406 312.792969 156.558594 313.765625 156.121094 C 316.726562 154.648438 320.136719 156.566406 323.09375 155.648438 C 323.589844 158.03125 321.160156 158.566406 319.710938 159.992188 C 319.191406 159.03125 318.128906 159.503906 317.191406 159.503906 Z M 317.191406 159.503906 "/>
<path style=" stroke:none;fill-rule:nonzero" d="M 166.773438 162.632812 C 168.183594 165.59375 169.222656 168.472656 171.71875 170.855469 C 172.101562 171.304688 171.679688 172.6875 170.679688 172.558594 C 165.605469 172.046875 154 169.769531 145.132812 172.769531 C 145.132812 170.382812 146.070312 168.464844 147.136719 166.503906 C 151.03125 158.742188 157.957031 152.929688 163.328125 145.625 C 165.789062 151 164.34375 157.3125 166.773438 162.632812 Z M 166.773438 162.632812 "/>
<path style=" stroke:none;fill-rule:nonzero" d="M 201.648438 241.648438 C 201.261719 243.96875 179.917969 259.542969 171.183594 263.441406 C 161.359375 265.847656 151.496094 262.9375 142.679688 258.609375 C 137.71875 256.648438 133.3125 253.703125 129.917969 249.382812 C 120.527344 236.777344 111.238281 225.121094 107.832031 210.039062 C 106.804688 203.753906 109.238281 197.433594 115.199219 194.550781 C 119.558594 192.121094 124.949219 192.59375 129.40625 191.121094 C 134.816406 188.664062 135.773438 182.40625 140.695312 179.953125 C 161.855469 168.296875 189.375 181.910156 197.214844 202.769531 C 202.109375 215.847656 197.726562 230.9375 188.902344 241.648438 C 190.351562 243.992188 199.703125 242.097656 201.648438 241.648438 "/>
<path style=" stroke:none;fill-rule:nonzero" d="M 222.839844 275.070312 C 219.839844 276.921875 217.445312 278.441406 215 280.375 C 218.878906 262.863281 218.40625 244.414062 212.039062 227.976562 C 211.167969 230.59375 197.511719 237.097656 197.765625 236.6875 C 205.429688 225.351562 205.03125 208.222656 200.574219 199.519531 C 195.117188 189.742188 187.75 181.03125 176.144531 175.550781 C 175.695312 175.320312 176.144531 174.105469 176.65625 173.128906 C 205.605469 183.304688 230.742188 200.777344 246.960938 227.464844 C 257.238281 244.96875 261.65625 262.863281 274.449219 278.910156 C 279.382812 284.742188 283.816406 290.609375 290.207031 295.398438 C 282.792969 296.433594 274.933594 294.960938 269.503906 289.566406 C 269.007812 289.144531 268.496094 289.566406 268.496094 290.0625 C 269.007812 293.03125 269.007812 295.398438 269.503906 298.351562 C 270.542969 302.71875 271.976562 306.617188 273.464844 310.496094 C 274.933594 314.839844 279.382812 318.273438 279.871094 323.105469 C 273.984375 322.601562 268.496094 318.71875 265.558594 313.863281 C 262.167969 326.96875 262.167969 340.535156 263.128906 354.144531 C 257.246094 345.929688 254.296875 336.695312 251.886719 326.96875 C 250.351562 320.167969 250.855469 313.863281 249.375 307.558594 C 245.480469 312.902344 239.589844 317.296875 233.605469 320.167969 C 238.078125 310.992188 242.511719 301.257812 243.488281 291.046875 C 243.960938 286.65625 243.960938 281.847656 243.960938 277.433594 C 243.488281 273.617188 242.511719 270.191406 241.574219 266.777344 C 240.574219 262.878906 239.078125 259.511719 237.566406 255.59375 C 236.589844 256.128906 236.589844 257.0625 236.136719 257.59375 C 234.152344 264.800781 229.679688 270.664062 222.839844 275.070312 Z M 222.839844 275.070312 "/>
<path style=" stroke:none;fill-rule:nonzero" d="M 299.015625 258.519531 C 294.609375 264.800781 287.230469 269.191406 279.375 269.191406 C 280.847656 267.742188 281.832031 265.785156 282.785156 263.414062 C 284.253906 260.457031 283.808594 257.585938 283.808594 254.640625 C 283.28125 250.257812 280.847656 245.886719 276.886719 243.480469 C 271.449219 240.113281 265.09375 241.542969 260.183594 244.414062 C 258.222656 240.601562 256.75 236.679688 254.765625 232.808594 C 270.039062 219.726562 288.664062 209.007812 308.816406 209.007812 C 324.566406 208.558594 339.832031 218.71875 347.183594 232.808594 C 353.0625 243.480469 355.535156 255.089844 353.0625 267.257812 C 350.128906 280.375 341.769531 290.054688 329.984375 295.894531 C 329.984375 295.894531 329.496094 295.390625 329.03125 295.390625 C 331.441406 287.136719 333.398438 278.441406 330.488281 269.679688 C 330.488281 268.695312 329.503906 270.175781 329.03125 270.664062 C 327.984375 273.070312 326.558594 275.070312 324.558594 276.496094 C 318.703125 279.367188 311.792969 282.3125 305.398438 280.863281 C 308.398438 271.128906 307.359375 260.457031 302.945312 251.273438 C 301.945312 252.742188 301.472656 254.207031 300.992188 255.574219 "/>
<path style=" stroke:none;fill-rule:nonzero" d="M 304.925781 256.558594 C 304.304688 254.6875 303.894531 252.742188 302.960938 251.28125 C 299.503906 260.945312 290.199219 269.191406 279.382812 269.191406 C 280.855469 267.742188 281.839844 265.785156 282.792969 263.414062 C 284.261719 260.457031 283.816406 257.585938 283.816406 254.640625 C 283.289062 250.257812 280.855469 245.886719 276.894531 243.480469 C 271.457031 240.113281 265.101562 241.542969 260.191406 244.414062 C 258.230469 240.601562 256.757812 236.679688 254.773438 232.808594 C 270.046875 219.726562 288.671875 209.007812 308.824219 209.007812 C 324.574219 208.558594 339.839844 218.71875 347.191406 232.808594 C 353.070312 243.480469 355.542969 255.089844 353.070312 267.257812 C 350.136719 280.375 341.777344 290.054688 329.992188 295.894531 C 329.992188 295.894531 329.503906 295.390625 329.039062 295.390625 C 331.449219 287.136719 333.40625 278.441406 330.496094 269.679688 C 330.496094 268.695312 329.511719 270.175781 329.039062 270.664062 C 327.992188 273.070312 326.566406 275.070312 324.566406 276.496094 C 318.710938 279.367188 311.800781 282.3125 305.40625 280.863281 C 307.367188 273.0625 307.367188 264.351562 304.925781 256.558594 Z M 304.925781 256.558594 "/>
<path style=" stroke:none;fill-rule:nonzero" d="M 324.0625 302.703125 C 333.894531 300.71875 342.75 296.425781 349.625 288.089844 C 362.441406 272.128906 360.464844 251.273438 353.0625 233.785156 C 350.625 226.992188 346.207031 221.199219 340.792969 215.808594 C 335.375 210.953125 329.503906 208.03125 322.597656 205.625 C 331.441406 205.625 340.304688 207.097656 348.160156 210.953125 C 348.632812 210.953125 349.632812 210.953125 349.632812 210.457031 C 345.222656 195.441406 329.039062 190.070312 316.207031 183.792969 C 327.519531 183.792969 337.847656 186.710938 347.679688 192.015625 C 361.929688 200.769531 373.214844 212.398438 379.582031 227.464844 C 385 239.632812 388.40625 251.703125 387.9375 264.800781 C 387.488281 284.742188 378.648438 303.664062 363.839844 317.273438 C 365.375 312.878906 367.320312 308.558594 367.847656 303.664062 C 368.335938 299.808594 369.800781 295.390625 367.320312 291.511719 C 361.414062 300.230469 352.085938 305.128906 342.238281 308.558594 C 339.289062 309.007812 335.847656 310.472656 332.910156 310.472656 L 323.085938 310.472656 C 318.703125 309.976562 314.695312 309 310.800781 308.023438 C 307.816406 307.039062 305.40625 304.632812 302.960938 302.199219 C 309.800781 302.703125 317.191406 303.167969 324.0625 302.703125 "/>
<path style=" stroke:none;fill-rule:nonzero" d="M 371.769531 360.960938 C 363.03125 367.800781 358.472656 377.40625 356.046875 388.105469 C 354.542969 380.839844 356.046875 373.601562 358.046875 366.246094 C 359.9375 358.535156 363.839844 352.214844 367.847656 344.929688 C 373.703125 332.761719 380.113281 321.601562 386.015625 309.992188 C 404.167969 272.136719 393.871094 225.527344 361.917969 196.878906 C 350.121094 186.71875 335.375 181.839844 320.640625 179.390625 C 336.871094 178.496094 353.609375 177.960938 369.800781 183.3125 C 390.917969 190.601562 407.152344 208.039062 413.542969 229.433594 C 421.847656 257.054688 417.910156 284.753906 411.0625 312.894531 C 406.128906 334.238281 396.839844 352.222656 392.40625 374.054688 C 390.425781 385.6875 390.425781 396.34375 389.449219 408.054688 C 389.449219 410.449219 390.425781 412.886719 388.953125 414.832031 C 387.929688 410 384.992188 406.03125 383.519531 401.265625 C 381.558594 392.023438 379.152344 383.289062 379.152344 374.0625 C 379.152344 367.785156 380.105469 361.441406 380.105469 355.128906 C 380.105469 354.640625 379.574219 354.640625 379.152344 354.640625 C 376.191406 356.574219 374.152344 359 371.769531 360.960938 Z M 371.769531 360.960938 "/>
<path style=" stroke:none;fill-rule:nonzero" d="M 335.847656 169.175781 L 335.375 168.703125 L 334.902344 169.175781 Z M 335.847656 169.175781 "/>
<path style=" stroke:none;fill-rule:nonzero" d="M 295.054688 182.304688 C 275.648438 189.992188 257.726562 201.265625 244.96875 217.792969 C 242.007812 216.296875 240.046875 212.871094 239.574219 210.015625 C 239.070312 209.519531 240.558594 208.03125 241.558594 207.097656 C 242.007812 206.601562 241.558594 206.113281 240.96875 206.113281 C 257.726562 183.296875 283.269531 166.808594 312.28125 164.871094 C 329.984375 163.398438 348.625 166.34375 363.832031 176.480469 C 358.039062 175.054688 352.070312 173.609375 346.199219 173.121094 C 338.296875 173.121094 330.480469 173.121094 322.589844 174.519531 C 315.71875 175.992188 309.328125 177.464844 302.421875 179.375 C 300.015625 180.359375 297.550781 181.335938 295.054688 182.304688 Z M 295.054688 182.304688 "/>
<path style=" stroke:none;fill-rule:nonzero" d="M 255.238281 180.832031 C 250.34375 184.535156 246.960938 188.632812 243.480469 192.976562 C 247.894531 177.472656 255.238281 163.40625 267.0625 151.753906 C 267.0625 151.753906 268.015625 152.238281 267.550781 152.734375 C 264.617188 155.65625 263.121094 160 262.65625 163.855469 C 261.65625 168.265625 261.65625 173.128906 260.679688 177.472656 C 260.183594 178.960938 257.238281 179.382812 255.238281 180.832031 Z M 255.238281 180.832031 "/>
<path style=" stroke:none;fill-rule:nonzero" d="M 285.304688 207.097656 C 272.390625 211.800781 258.671875 216.785156 251.277344 228.929688 C 249.871094 226.480469 248.894531 223.558594 247.382812 221.199219 C 264.085938 204.648438 284.253906 185.726562 309.808594 187.671875 C 320.136719 188.199219 330.496094 192.976562 335.855469 201.710938 C 336.886719 203.207031 334.917969 201.710938 334.40625 201.710938 C 317.671875 199.320312 301 201.257812 285.304688 207.097656 Z M 285.304688 207.097656 "/>
<path style=" stroke:none;fill-rule:nonzero" d="M 271.023438 258.992188 C 270.039062 259.992188 269 260.464844 268.015625 260.953125 C 266.128906 256.566406 263.625 252.753906 263.121094 248.320312 C 268.488281 243.488281 277.414062 247.847656 277.863281 253.191406 C 278.351562 255.574219 273.457031 256.558594 271.023438 258.992188 Z M 271.023438 258.992188 "/>
<path style=" stroke:none;fill-rule:nonzero" d="M 231.703125 356.089844 C 230.632812 356.320312 229.183594 355.574219 228.222656 355.105469 C 224.816406 354.128906 220.832031 357.558594 218.871094 354.617188 C 217.4375 352.65625 217 349.265625 214.464844 347.816406 C 213.039062 347.34375 211.503906 349.265625 210.519531 347.816406 C 209.070312 344.425781 207.109375 341.511719 204.6875 339.105469 C 188.429688 325.015625 167.328125 314.816406 159.925781 293.945312 C 161.925781 294.945312 164.382812 294.414062 166.34375 294.414062 C 174.734375 295.382812 182.511719 293.480469 190.902344 294.945312 C 197.296875 296.414062 203.191406 298.328125 209.605469 300.222656 C 210.519531 300.222656 212.03125 300.710938 213.039062 300.222656 C 213.527344 301.222656 215 300.710938 215.445312 300.710938 C 218.878906 301.695312 221.855469 301.695312 225.289062 302.207031 C 228.230469 302.207031 230.742188 302.703125 233.597656 302.207031 C 232.191406 312.390625 224.824219 320.617188 220.839844 329.855469 C 220.839844 330.328125 222.328125 330.328125 222.839844 330.328125 C 223.839844 329.441406 224.3125 329.855469 225.289062 329.855469 C 232.65625 327.921875 237.558594 322.574219 243.953125 319.183594 C 241.566406 323.550781 239.582031 328.382812 239.078125 333.246094 C 238.070312 338.144531 239.078125 342.472656 239.078125 347.351562 C 239.582031 351.273438 235.597656 355.105469 231.703125 356.089844 Z M 231.703125 356.089844 "/>
<path style=" stroke:none;fill-rule:nonzero" d="M 211.503906 294.953125 C 204.023438 293.6875 197.296875 292.007812 190.414062 288.089844 C 186.96875 286.167969 181.574219 284.742188 180.0625 280.375 C 197.765625 288.648438 218.40625 288.089844 237.558594 287.136719 C 236.582031 288.097656 237.0625 289.558594 237.0625 290.609375 C 236.574219 292.503906 236.574219 293.960938 236.574219 295.894531 C 236.574219 296.425781 235.589844 296.871094 235.589844 296.871094 C 233.589844 295.390625 231.703125 296.425781 229.671875 296.425781 C 226.773438 295.894531 223.832031 295.894531 220.832031 296.425781 C 217.984375 296.425781 214.472656 295.390625 211.503906 294.953125 Z M 211.503906 294.953125 "/>
<path style=" stroke:none;fill-rule:nonzero" d="M 139.78125 282.3125 C 117.671875 274.472656 96.984375 258.519531 92.125 235.214844 C 102.925781 244.96875 115.710938 252.742188 129.976562 255.574219 C 140.773438 263.414062 152.558594 272.617188 166.34375 274.535156 C 171.199219 279.878906 175.671875 286.167969 182.511719 289.128906 C 182.0625 289.128906 182.0625 289.550781 182.0625 290.046875 C 167.800781 288.648438 153.582031 287.136719 139.78125 282.3125 Z M 139.78125 282.3125 "/>
<path style=" stroke:none;fill-rule:nonzero" d="M 194.808594 278.902344 C 188.582031 277.367188 183.511719 275.511719 177.640625 273.601562 C 173.71875 272.128906 169.269531 270.167969 164.855469 269.191406 C 164.382812 268.695312 163.359375 268.230469 163.871094 268.230469 C 168.773438 267.257812 173.710938 265.785156 178.125 265.785156 C 188.925781 266.769531 199.75 269.191406 209.078125 274.097656 C 211.039062 275.519531 208.078125 279.886719 206.117188 280.382812 C 202.726562 280.863281 198.742188 279.878906 194.808594 278.902344 Z M 194.808594 278.902344 "/>
<path style=" stroke:none;fill-rule:nonzero" d="M 206.648438 265.785156 C 199.824219 264.144531 193.351562 263.847656 186.496094 262.398438 C 189.582031 260.929688 191.902344 259.144531 193.824219 257.054688 C 199.742188 259 206.109375 258.527344 212.503906 259.511719 C 211.503906 261.9375 212.503906 264.816406 211.503906 267.265625 C 210.054688 266.273438 208.589844 266.273438 206.648438 265.785156 Z M 206.648438 265.785156 "/>
<path style=" stroke:none;fill-rule:nonzero" d="M 198.742188 251.703125 C 202.199219 247.359375 207.605469 244.414062 209.605469 239.136719 C 210.054688 238.648438 210.519531 238.648438 211.03125 238.648438 C 210.046875 243.480469 213.390625 248.167969 211.878906 252.984375 C 211.886719 252.984375 201.726562 252.742188 198.742188 251.703125 Z M 198.742188 251.703125 "/>
<path style=" stroke:none;fill-rule:nonzero" d="M 156.503906 328.855469 C 151.949219 331.136719 147.167969 331.777344 143.230469 328.855469 C 139.285156 325.449219 138.3125 319.183594 139.285156 314.351562 C 135.855469 310.96875 130.429688 308.558594 129.023438 303.664062 C 128.46875 302.207031 129.984375 303.167969 129.984375 302.207031 C 130.917969 302.207031 131.902344 301.703125 131.902344 301.230469 C 131.902344 295.390625 130.429688 289.558594 131.902344 283.777344 C 138.78125 287.679688 145.640625 291.511719 154.039062 292 C 158.421875 304.144531 167.800781 313.367188 175.175781 323.542969 C 168.773438 325.023438 162.40625 326.007812 156.503906 328.855469 Z M 156.503906 328.855469 "/>
<path style=" stroke:none;fill-rule:nonzero" d="M 68.972656 318.246094 C 66.972656 311.070312 68.550781 303.664062 65.589844 296.863281 C 60.183594 298.777344 54.765625 299.273438 48.886719 298.335938 C 42.007812 302.703125 42.007812 311.441406 40.519531 318.703125 C 39.535156 321.089844 37.085938 322.113281 36.109375 324.046875 C 35.597656 325.457031 38.109375 328.863281 36.574219 328.863281 C 31.191406 328.390625 30.140625 321.601562 31.679688 316.808594 C 33.664062 310.480469 39.078125 306.113281 40.992188 299.808594 C 42.015625 298.335938 39.535156 296.871094 38.117188 297.3125 C 28.742188 302.207031 21.8125 310.480469 11.511719 312.398438 C 12.496094 313.847656 13.046875 315.832031 13.957031 317.742188 C 10.085938 317.742188 7.566406 313.375 8.0625 309.984375 C 8.550781 305.136719 12.496094 301.230469 16.941406 301.230469 C 28.230469 300.230469 37.09375 293.015625 47.40625 289.128906 C 49.390625 288.089844 51.878906 287.128906 53.796875 287.128906 C 57.695312 287.679688 61.167969 287.128906 65.070312 287.679688 C 70.03125 288.089844 74.910156 289.128906 79.34375 291.511719 C 88.246094 296.414062 98.007812 299.273438 107.335938 302.207031 C 113.300781 304.144531 119.160156 304.640625 125.015625 305.128906 C 126.078125 310.472656 131.917969 311.902344 133.453125 317.273438 C 133.925781 319.183594 133.453125 320.617188 133.453125 322.105469 C 127.511719 315.304688 119.648438 311.433594 111.367188 308.558594 C 107.34375 307.046875 102.949219 306.105469 98.542969 305.574219 C 98.007812 305.574219 96.558594 305.574219 96.558594 306.601562 C 96.558594 311.433594 96.558594 317.273438 92.664062 320.617188 C 92.152344 317.742188 93.109375 315.3125 92.664062 312.398438 C 91.636719 309.503906 91.636719 306.113281 90.152344 304.152344 C 86.71875 299.28125 80.886719 299.808594 75.40625 298.785156 C 74.917969 298.785156 73.496094 297.3125 73.496094 298.785156 C 74.917969 309.503906 83.320312 322.585938 74.46875 331.785156 C 73.964844 329.863281 75.902344 327.367188 74.46875 326.480469 C 71.992188 324.046875 70.015625 321.59375 68.972656 318.246094 Z M 68.972656 318.246094 "/>
<path style=" stroke:none;fill-rule:nonzero" d="M 201.453125 412.640625 C 200.007812 409.207031 200.007812 405.824219 200.984375 402.441406 C 204.878906 385.953125 217.191406 373.296875 229.445312 362.648438 C 226.039062 360.214844 221.136719 363.585938 218.175781 362.136719 C 215.253906 360.6875 214.742188 354.382812 209.808594 355.808594 C 210.320312 360.222656 209.296875 364.054688 208.359375 367.992188 C 203.902344 379.160156 198.023438 389.296875 191.167969 400.007812 C 188.695312 404.375 181.285156 415.558594 179.878906 415.558594 C 171.527344 416.007812 162.621094 416.984375 154.3125 416.984375 C 148.855469 416.984375 145 418.929688 140.613281 421.761719 L 136.871094 426.9375 C 136.871094 426.9375 138.0625 431.089844 139.039062 433.007812 C 140.0625 434.945312 142 436.375 143.472656 438.375 C 144.007812 435.902344 142.472656 433.503906 143 431.089844 C 143.472656 430.542969 144 429.136719 145.429688 429.601562 C 148.414062 430.070312 151.328125 428.679688 152.3125 425.742188 C 153.78125 426.679688 154.839844 425.359375 156.207031 425.742188 C 160.191406 426.679688 163.597656 424.785156 167.070312 427.128906 C 162.175781 432.023438 156.757812 436.375 156.207031 443.679688 C 156.207031 445.128906 156.207031 446.128906 157.269531 447.574219 C 158.230469 449.023438 160.191406 450.007812 162.167969 450.007812 C 161.640625 447.136719 160.695312 444.65625 162.167969 441.742188 C 171.519531 442.695312 175.925781 433.503906 179.359375 426.679688 C 186.6875 425.230469 194.078125 427.128906 201.445312 426.246094 C 202.429688 429.128906 204.878906 432.023438 207.855469 433.007812 C 210.3125 433.503906 212.734375 433.007812 214.734375 433.007812 C 217.671875 433.503906 217.183594 437.800781 217.183594 440.761719 C 221.613281 436.929688 220.65625 430.070312 215.6875 427.128906 C 214.382812 422.953125 203.429688 416.984375 201.453125 412.640625 Z M 201.453125 412.640625 "/>
<path style=" stroke:none;fill-rule:nonzero" d="M 217.984375 395.871094 C 215.40625 398.351562 211.039062 399.238281 207.605469 397.304688 C 208.589844 396.328125 209.605469 394.921875 209.605469 393.472656 C 213.039062 394.40625 217 393.945312 220.429688 393.472656 C 220.429688 394.921875 218.878906 394.921875 217.984375 395.871094 Z M 217.984375 395.871094 "/>
<path style=" stroke:none;fill-rule:nonzero" d="M 298.015625 350.246094 C 294.558594 350.480469 291.175781 352.207031 288.214844 351.71875 C 296.03125 347.824219 301.953125 341.519531 305.886719 334.222656 C 306.390625 333.734375 304.917969 331.777344 304.382812 332.289062 C 298.015625 334.222656 290.664062 333.742188 285.71875 329.441406 C 292.625 329.441406 299.015625 326.945312 305.40625 324.046875 C 309.800781 321.59375 312.28125 317.742188 316.207031 315.3125 C 331.894531 318.703125 348.632812 314.816406 361.40625 305.574219 C 354.550781 317.742188 352.078125 331.335938 347.671875 344.425781 C 346.199219 350.753906 345.6875 357.054688 345.214844 363.320312 C 339.824219 357.542969 339.28125 349.800781 336.871094 342.953125 C 328.472656 350.753906 324.054688 361.40625 320.640625 372.558594 C 318.128906 381.761719 319.183594 391.015625 318.703125 400.214844 C 310.28125 381.761719 314.695312 360.414062 316.71875 341.015625 C 310.289062 344.433594 305.40625 349.808594 298.015625 350.246094 Z M 298.015625 350.246094 "/>
<path style=" stroke:none;fill-rule:nonzero" d="M 227.757812 282.3125 C 226.261719 282.3125 225.289062 282.808594 223.839844 282.3125 C 227.757812 279.367188 232.191406 277.414062 234.152344 273.601562 C 235.597656 271.640625 236.128906 269.679688 237.558594 268.230469 C 237.0625 273.0625 239.070312 278.441406 236.582031 283.296875 C 233.597656 282.3125 230.742188 282.3125 227.757812 282.3125 Z M 227.757812 282.3125 "/>
</g>
</svg>
