<?xml version="1.0" encoding="UTF-8"?>
<svg xmlns="http://www.w3.org/2000/svg" xmlns:xlink="http://www.w3.org/1999/xlink" width="720pt" height="480pt" viewBox="0 0 720 480" version="1.1">
<defs>
<filter id="alpha" filterUnits="objectBoundingBox" x="0%" y="0%" width="100%" height="100%">
  <feColorMatrix type="matrix" in="SourceGraphic" values="0 0 0 0 1 0 0 0 0 1 0 0 0 0 1 0 0 0 1 0"/>
</filter>
<clipPath id="clip1">
  <rect width="720" height="480"/>
</clipPath>
<g id="surface10" clip-path="url(#clip1)">
<rect x="0" y="0" width="720" height="480" style="fill:rgb(0%,0%,0%);fill-opacity:0.99;stroke:none;"/>
</g>
<mask id="mask0">
  <g filter="url(#alpha)">
<use xlink:href="#surface10"/>
  </g>
</mask>
<clipPath id="clip3">
  <rect width="720" height="480"/>
</clipPath>
<g id="surface9" clip-path="url(#clip3)">
<path style=" stroke:none;fill-rule:nonzero;fill:rgb(100%,100%,100%);fill-opacity:1;" d="M 405.648438 98.425781 C 426.824219 98.300781 441.671875 106.550781 453.960938 118.605469 C 467.207031 131.597656 473.667969 148.644531 473.765625 167.960938 C 473.859375 186.589844 467.402344 199.917969 460.136719 209.964844 C 448.269531 226.382812 434.640625 236.957031 420.664062 249.792969 C 398.042969 270.574219 384 289.089844 372.222656 312.234375 C 369.3125 317.945312 366.816406 326.453125 359.996094 326.453125 C 353.175781 326.453125 350.679688 317.941406 347.773438 312.234375 C 335.992188 289.089844 321.953125 270.574219 299.328125 249.792969 C 285.355469 236.953125 271.722656 226.378906 259.855469 209.964844 C 252.59375 199.921875 246.136719 186.589844 246.230469 167.960938 C 246.328125 148.644531 252.785156 131.597656 266.03125 118.605469 C 278.324219 106.550781 293.171875 98.300781 314.347656 98.425781 C 336.203125 98.550781 350.082031 106.101562 359.996094 118.765625 C 369.914062 106.101562 383.792969 98.550781 405.648438 98.425781 Z M 405.648438 98.425781 "/>
</g>
<clipPath id="clip2">
  <rect width="720" height="480"/>
</clipPath>
<g id="surface8" clip-path="url(#clip2)">
<use xlink:href="#surface9"/>
</g>
</defs>
<g id="surface1">
<path style=" stroke:none;fill-rule:nonzero;fill:rgb(87%,87%,87%);fill-opacity:1;" d="M 349.199219 372.152344 C 349.160156 377.765625 346.972656 382.246094 341.472656 382.242188 C 335.664062 382.242188 329.082031 370.933594 312.777344 363.164062 C 298.199219 356.21875 283.921875 353.097656 270.992188 353.074219 C 255.019531 353.046875 228.074219 360.78125 202.5625 361.113281 C 178.496094 361.429688 156.730469 349.964844 142.960938 334.941406 C 132.683594 323.726562 125.542969 305.949219 125.617188 289.84375 C 125.707031 269.542969 133.570312 249.632812 151.476562 234.660156 C 164.511719 223.757812 179.566406 219.261719 197.042969 219.207031 C 223.21875 219.125 249.570312 232.589844 266.261719 245.855469 C 290.75 265.308594 313.257812 291.164062 328.859375 319.171875 C 337.742188 335.117188 349.273438 361.75 349.199219 372.152344 Z M 349.199219 372.152344 "/>
<path style=" stroke:none;fill-rule:nonzero;fill:rgb(87%,87%,87%);fill-opacity:1;" d="M 370.800781 372.152344 C 370.839844 377.765625 373.027344 382.246094 378.527344 382.242188 C 384.335938 382.242188 390.917969 370.933594 407.222656 363.164062 C 421.800781 356.21875 436.078125 353.097656 449.007812 353.074219 C 464.980469 353.046875 491.925781 360.78125 517.4375 361.113281 C 541.503906 361.429688 563.269531 349.964844 577.039062 334.941406 C 587.316406 323.726562 594.457031 305.949219 594.382812 289.84375 C 594.292969 269.542969 586.429688 249.632812 568.523438 234.660156 C 555.488281 223.757812 540.433594 219.261719 522.957031 219.207031 C 496.78125 219.125 470.429688 232.589844 453.738281 245.855469 C 429.25 265.308594 406.742188 291.164062 391.140625 319.171875 C 382.257812 335.117188 370.726562 361.75 370.800781 372.152344 Z M 370.800781 372.152344 "/>
<use xlink:href="#surface8" mask="url(#mask0)"/>
<path style=" stroke:none;fill-rule:nonzero;fill:rgb(83%,83%,83%);fill-opacity:1;" d="M 377.113281 127.28125 C 384.390625 121.917969 393.773438 118.460938 402.8125 118.609375 C 415.832031 118.816406 428.074219 123.023438 436.871094 131.539062 C 446.640625 140.992188 453.203125 153.582031 452.796875 169.222656 C 452.238281 190.742188 440.589844 202.191406 424.414062 218.734375 C 413.375 230.023438 402.890625 235.878906 386.886719 253.738281 C 380.617188 260.734375 368 278.609375 360 295.367188 C 352 278.609375 339.382812 260.734375 333.113281 253.738281 C 317.113281 235.878906 306.628906 230.023438 295.585938 218.734375 C 279.414062 202.191406 267.765625 190.742188 267.207031 169.222656 C 266.800781 153.582031 273.359375 140.992188 283.132812 131.539062 C 291.929688 123.027344 304.167969 118.820312 317.1875 118.609375 C 326.230469 118.460938 335.609375 121.917969 342.890625 127.28125 C 350.269531 132.71875 355.433594 139.597656 360 148.722656 C 364.570312 139.597656 369.730469 132.71875 377.113281 127.28125 Z M 377.113281 127.28125 "/>
</g>
</svg>
